{
.appVersion = "895";
copyright = "Copyright 2016 Google Inc. All Rights Reserved.";
customParameters = (
{
name = description;
value = "Designed by Monotype design team.";
},
{
name = license;
value = "This Font Software is licensed under the SIL Open Font License, Version 1.1. This Font Software is distributed on an \"AS IS\" BASIS, WITHOUT WARRANTIES OR CONDITIONS OF ANY KIND, either express or implied. See the SIL Open Font License for the specific language, permissions and limitations governing your use of this Font Software.";
},
{
name = licenseURL;
value = "http://scripts.sil.org/OFL";
},
{
name = vendorID;
value = GOOG;
},
{
name = trademark;
value = "Noto is a trademark of Google Inc.";
},
{
name = fsType;
value = ();
},
{
name = panose;
value = (
2,
11,
5,
2,
4,
5,
4,
2,
2,
4
);
},
{
name = unicodeRanges;
value = (
57,
58
);
},
{
name = codePageRanges;
value = (
1252
);
}
);
date = "2016-11-10 12:35:38 +0000";
designer = "Monotype Design Team";
designerURL = "http://www.monotype.com/studio";
familyName = "Noto Sans Imperial Aramaic";
fontMaster = (
{
ascender = 2189;
capHeight = 1434;
customParameters = (
{
name = typoAscender;
value = 2189;
},
{
name = typoDescender;
value = -600;
},
{
name = typoLineGap;
value = 0;
},
{
name = winAscent;
value = 2189;
},
{
name = winDescent;
value = 600;
},
{
name = hheaAscender;
value = 2189;
},
{
name = hheaDescender;
value = -600;
},
{
name = underlinePosition;
value = -205;
},
{
name = underlineThickness;
value = 102;
}
);
descender = -600;
id = "AAFE8314-6E29-451C-A924-787600E12593";
weightValue = 400;
widthValue = 5;
xHeight = 1024;
}
);
glyphs = (
{
glyphname = .notdef;
lastChange = "2016-11-10 13:53:54 +0000";
layers = (
{
layerId = "AAFE8314-6E29-451C-A924-787600E12593";
paths = (
{
closed = 1;
nodes = (
"922 0 LINE",
"922 1462 LINE",
"102 1462 LINE",
"102 0 LINE"
);
},
{
closed = 1;
nodes = (
"201 1364 LINE",
"823 1364 LINE",
"823 98 LINE",
"201 98 LINE"
);
}
);
width = 1024;
}
);
note = .notdef;
},
{
glyphname = g4;
lastChange = "2016-11-10 13:53:54 +0000";
layers = (
{
layerId = "AAFE8314-6E29-451C-A924-787600E12593";
paths = (
{
closed = 1;
nodes = (
"1292 31 LINE",
"1274 94 OFFCURVE",
"1265 198 OFFCURVE",
"1265 343 CURVE SMOOTH",
"1265 686 OFFCURVE",
"1386 1062 OFFCURVE",
"1597 1375 CURVE",
"1465 1482 LINE",
"1252 1190 OFFCURVE",
"1102 778 OFFCURVE",
"1086 447 CURVE",
"896 819 OFFCURVE",
"669 1168 OFFCURVE",
"404 1494 CURVE",
"264 1401 LINE",
"307 1327 OFFCURVE",
"328 1217 OFFCURVE",
"328 1072 CURVE SMOOTH",
"328 849 OFFCURVE",
"236 634 OFFCURVE",
"100 518 CURVE",
"233 399 LINE",
"401 558 OFFCURVE",
"506 791 OFFCURVE",
"506 991 CURVE SMOOTH",
"506 1014 OFFCURVE",
"504 1046 OFFCURVE",
"499 1087 CURVE",
"699 802 OFFCURVE",
"927 429 OFFCURVE",
"1163 -50 CURVE"
);
}
);
width = 1697;
}
);
note = g4;
},
{
glyphname = g5;
lastChange = "2016-11-10 13:53:54 +0000";
layers = (
{
layerId = "AAFE8314-6E29-451C-A924-787600E12593";
paths = (
{
closed = 1;
nodes = (
"621 43 OFFCURVE",
"903 181 OFFCURVE",
"1073 364 CURVE SMOOTH",
"1243 547 OFFCURVE",
"1322 781 OFFCURVE",
"1322 1196 CURVE SMOOTH",
"1322 1305 OFFCURVE",
"1319 1401 OFFCURVE",
"1312 1482 CURVE",
"1139 1429 LINE",
"1110 1382 OFFCURVE",
"1063 1337 OFFCURVE",
"996 1293 CURVE SMOOTH",
"862 1204 OFFCURVE",
"688 1148 OFFCURVE",
"585 1148 CURVE SMOOTH",
"519 1148 OFFCURVE",
"468 1159 OFFCURVE",
"432 1180 CURVE SMOOTH",
"359 1222 OFFCURVE",
"309 1313 OFFCURVE",
"270 1482 CURVE",
"100 1430 LINE",
"159 1132 OFFCURVE",
"312 983 OFFCURVE",
"559 983 CURVE SMOOTH",
"760 983 OFFCURVE",
"977 1064 OFFCURVE",
"1141 1207 CURVE",
"1136 1034 OFFCURVE",
"1122 904 OFFCURVE",
"1101 817 CURVE SMOOTH",
"1058 642 OFFCURVE",
"975 506 OFFCURVE",
"829 395 CURVE SMOOTH",
"683 283 OFFCURVE",
"470 188 OFFCURVE",
"159 111 CURVE",
"218 -50 LINE"
);
}
);
width = 1482;
}
);
note = g5;
},
{
glyphname = g6;
lastChange = "2016-11-10 13:53:54 +0000";
layers = (
{
layerId = "AAFE8314-6E29-451C-A924-787600E12593";
paths = (
{
closed = 1;
nodes = (
"1667 110 LINE",
"1483 211 OFFCURVE",
"1352 351 OFFCURVE",
"1269 516 CURVE SMOOTH",
"1185 680 OFFCURVE",
"1141 881 OFFCURVE",
"1141 1234 CURVE SMOOTH",
"1141 1347 OFFCURVE",
"1143 1430 OFFCURVE",
"1147 1482 CURVE",
"969 1430 LINE",
"962 1407 LINE",
"956 1383 LINE",
"896 1244 OFFCURVE",
"732 1010 OFFCURVE",
"561 825 CURVE SMOOTH",
"390 640 OFFCURVE",
"207 491 OFFCURVE",
"40 411 CURVE",
"147 269 LINE",
"437 426 OFFCURVE",
"709 686 OFFCURVE",
"962 1051 CURVE",
"981 516 OFFCURVE",
"1205 134 OFFCURVE",
"1608 -50 CURVE"
);
}
);
width = 1697;
}
);
note = g6;
},
{
glyphname = g7;
lastChange = "2016-11-10 13:53:54 +0000";
layers = (
{
layerId = "AAFE8314-6E29-451C-A924-787600E12593";
paths = (
{
closed = 1;
nodes = (
"1012 681 OFFCURVE",
"1069 1179 OFFCURVE",
"1137 1442 CURVE",
"980 1484 LINE",
"967 1443 LINE",
"927 1376 OFFCURVE",
"880 1320 OFFCURVE",
"826 1276 CURVE SMOOTH",
"717 1188 OFFCURVE",
"592 1141 OFFCURVE",
"469 1141 CURVE SMOOTH",
"414 1141 OFFCURVE",
"371 1152 OFFCURVE",
"338 1174 CURVE SMOOTH",
"273 1217 OFFCURVE",
"229 1310 OFFCURVE",
"210 1462 CURVE",
"40 1410 LINE",
"69 1121 OFFCURVE",
"206 976 OFFCURVE",
"453 976 CURVE SMOOTH",
"612 976 OFFCURVE",
"776 1038 OFFCURVE",
"904 1142 CURVE",
"848 801 OFFCURVE",
"797 196 OFFCURVE",
"797 0 CURVE",
"965 -50 LINE"
);
}
);
width = 1297;
}
);
note = g7;
},
{
glyphname = g8;
lastChange = "2016-11-10 13:53:54 +0000";
layers = (
{
layerId = "AAFE8314-6E29-451C-A924-787600E12593";
paths = (
{
closed = 1;
nodes = (
"1410 295 OFFCURVE",
"1528 617 OFFCURVE",
"1528 916 CURVE SMOOTH",
"1528 955 OFFCURVE",
"1501 1023 OFFCURVE",
"1447 1120 CURVE SMOOTH",
"1339 1314 OFFCURVE",
"1200 1484 OFFCURVE",
"1111 1484 CURVE SMOOTH",
"1035 1484 OFFCURVE",
"794 1396 OFFCURVE",
"559 1289 CURVE SMOOTH",
"100 1081 LINE",
"160 943 LINE",
"614 1144 LINE",
"579 888 OFFCURVE",
"464 590 OFFCURVE",
"297 331 CURVE",
"434 224 LINE",
"647 537 OFFCURVE",
"781 902 OFFCURVE",
"800 1226 CURVE",
"943 1288 OFFCURVE",
"1036 1319 OFFCURVE",
"1077 1319 CURVE SMOOTH",
"1097 1319 OFFCURVE",
"1128 1290 OFFCURVE",
"1171 1233 CURVE SMOOTH",
"1256 1117 OFFCURVE",
"1348 937 OFFCURVE",
"1348 869 CURVE SMOOTH",
"1348 658 OFFCURVE",
"1227 350 OFFCURVE",
"1038 57 CURVE",
"1175 -50 LINE"
);
}
);
width = 1688;
}
);
note = g8;
},
{
glyphname = g9;
lastChange = "2016-11-10 13:53:54 +0000";
layers = (
{
layerId = "AAFE8314-6E29-451C-A924-787600E12593";
paths = (
{
closed = 1;
nodes = (
"690 142 OFFCURVE",
"715 486 OFFCURVE",
"715 777 CURVE SMOOTH",
"715 912 LINE SMOOTH",
"715 1292 OFFCURVE",
"571 1481 OFFCURVE",
"291 1481 CURVE SMOOTH",
"211 1481 OFFCURVE",
"134 1471 OFFCURVE",
"60 1450 CURVE",
"75 1296 LINE",
"79 1297 LINE",
"141 1310 OFFCURVE",
"200 1316 OFFCURVE",
"255 1316 CURVE SMOOTH",
"306 1316 OFFCURVE",
"350 1307 OFFCURVE",
"386 1290 CURVE SMOOTH",
"457 1255 OFFCURVE",
"499 1190 OFFCURVE",
"520 1074 CURVE SMOOTH",
"530 1016 OFFCURVE",
"535 915 OFFCURVE",
"535 771 CURVE SMOOTH",
"535 504 OFFCURVE",
"507 193 OFFCURVE",
"472 0 CURVE",
"650 -50 LINE"
);
}
);
width = 875;
}
);
note = g9;
},
{
glyphname = g10;
lastChange = "2016-11-10 13:53:54 +0000";
layers = (
{
layerId = "AAFE8314-6E29-451C-A924-787600E12593";
paths = (
{
closed = 1;
nodes = (
"454 203 OFFCURVE",
"483 617 OFFCURVE",
"483 1026 CURVE SMOOTH",
"483 1209 OFFCURVE",
"474 1422 OFFCURVE",
"467 1462 CURVE",
"288 1482 LINE",
"293 1437 OFFCURVE",
"303 1212 OFFCURVE",
"303 1033 CURVE SMOOTH",
"303 678 OFFCURVE",
"274 264 OFFCURVE",
"230 0 CURVE",
"407 -50 LINE"
);
}
);
width = 743;
}
);
note = g10;
},
{
glyphname = g11;
lastChange = "2016-11-10 13:53:54 +0000";
layers = (
{
layerId = "AAFE8314-6E29-451C-A924-787600E12593";
paths = (
{
closed = 1;
nodes = (
"253 36 OFFCURVE",
"326 138 OFFCURVE",
"387 256 CURVE SMOOTH",
"509 491 OFFCURVE",
"583 813 OFFCURVE",
"583 1104 CURVE SMOOTH",
"583 1164 LINE",
"582 1211 LINE",
"639 1198 OFFCURVE",
"699 1192 OFFCURVE",
"762 1192 CURVE SMOOTH",
"895 1192 OFFCURVE",
"1024 1217 OFFCURVE",
"1149 1267 CURVE",
"1170 1192 OFFCURVE",
"1181 1088 OFFCURVE",
"1181 956 CURVE SMOOTH",
"1181 720 OFFCURVE",
"1112 446 OFFCURVE",
"995 214 CURVE",
"1149 119 LINE",
"1290 378 OFFCURVE",
"1361 670 OFFCURVE",
"1361 995 CURVE SMOOTH",
"1361 1209 OFFCURVE",
"1323 1373 OFFCURVE",
"1246 1487 CURVE",
"1143 1415 OFFCURVE",
"931 1357 OFFCURVE",
"799 1357 CURVE SMOOTH",
"587 1357 OFFCURVE",
"396 1433 OFFCURVE",
"289 1564 CURVE",
"189 1440 LINE",
"237 1375 OFFCURVE",
"306 1320 OFFCURVE",
"397 1275 CURVE",
"403 1174 LINE",
"403 1023 OFFCURVE",
"388 875 OFFCURVE",
"359 732 CURVE SMOOTH",
"300 444 OFFCURVE",
"189 224 OFFCURVE",
"40 75 CURVE",
"169 -50 LINE"
);
}
);
width = 1521;
}
);
note = g11;
},
{
glyphname = g12;
lastChange = "2016-11-10 13:53:54 +0000";
layers = (
{
layerId = "AAFE8314-6E29-451C-A924-787600E12593";
paths = (
{
closed = 1;
nodes = (
"821 -44 OFFCURVE",
"932 -9 OFFCURVE",
"1023 61 CURVE SMOOTH",
"1205 200 OFFCURVE",
"1304 490 OFFCURVE",
"1304 902 CURVE SMOOTH",
"1304 1085 OFFCURVE",
"1261 1168 OFFCURVE",
"1153 1168 CURVE SMOOTH",
"1086 1168 OFFCURVE",
"946 1131 OFFCURVE",
"787 1068 CURVE SMOOTH",
"737 1049 LINE",
"780 904 LINE",
"847 929 OFFCURVE",
"903 950 OFFCURVE",
"949 967 CURVE SMOOTH",
"994 984 OFFCURVE",
"1025 992 OFFCURVE",
"1042 992 CURVE SMOOTH",
"1087 992 OFFCURVE",
"1103 975 OFFCURVE",
"1115 932 CURVE SMOOTH",
"1121 911 OFFCURVE",
"1124 881 OFFCURVE",
"1124 842 CURVE SMOOTH",
"1124 696 OFFCURVE",
"1106 567 OFFCURVE",
"1071 455 CURVE SMOOTH",
"1000 230 OFFCURVE",
"874 121 OFFCURVE",
"706 121 CURVE SMOOTH",
"633 121 OFFCURVE",
"569 144 OFFCURVE",
"515 190 CURVE SMOOTH",
"406 282 OFFCURVE",
"340 471 OFFCURVE",
"340 692 CURVE SMOOTH",
"340 991 OFFCURVE",
"428 1175 OFFCURVE",
"647 1348 CURVE",
"543 1483 LINE",
"272 1264 OFFCURVE",
"160 1033 OFFCURVE",
"160 697 CURVE SMOOTH",
"160 556 OFFCURVE",
"183 428 OFFCURVE",
"229 312 CURVE SMOOTH",
"320 79 OFFCURVE",
"483 -44 OFFCURVE",
"691 -44 CURVE SMOOTH"
);
}
);
width = 1464;
}
);
note = g12;
},
{
glyphname = g13;
lastChange = "2016-11-10 13:53:54 +0000";
layers = (
{
layerId = "AAFE8314-6E29-451C-A924-787600E12593";
paths = (
{
closed = 1;
nodes = (
"1170 918 LINE",
"946 1042 OFFCURVE",
"809 1199 OFFCURVE",
"716 1450 CURVE",
"570 1515 LINE",
"466 1375 OFFCURVE",
"287 1188 OFFCURVE",
"100 1036 CURVE",
"199 887 LINE",
"336 996 OFFCURVE",
"468 1123 OFFCURVE",
"596 1268 CURVE",
"701 1036 OFFCURVE",
"882 862 OFFCURVE",
"1111 758 CURVE"
);
}
);
width = 1270;
}
);
note = g13;
},
{
glyphname = g14;
lastChange = "2016-11-10 13:53:54 +0000";
layers = (
{
layerId = "AAFE8314-6E29-451C-A924-787600E12593";
paths = (
{
closed = 1;
nodes = (
"237 -446 OFFCURVE",
"395 -390 OFFCURVE",
"520 -313 CURVE SMOOTH",
"770 -159 OFFCURVE",
"893 87 OFFCURVE",
"893 490 CURVE SMOOTH",
"893 746 LINE SMOOTH",
"893 1042 OFFCURVE",
"944 1302 OFFCURVE",
"1015 1442 CURVE",
"841 1484 LINE",
"828 1455 OFFCURVE",
"816 1427 OFFCURVE",
"807 1399 CURVE",
"719 1218 OFFCURVE",
"579 1078 OFFCURVE",
"475 1078 CURVE SMOOTH",
"386 1078 OFFCURVE",
"335 1154 OFFCURVE",
"335 1274 CURVE SMOOTH",
"335 1316 OFFCURVE",
"339 1369 OFFCURVE",
"348 1432 CURVE",
"172 1482 LINE",
"161 1406 OFFCURVE",
"155 1339 OFFCURVE",
"155 1281 CURVE SMOOTH",
"155 1044 OFFCURVE",
"262 913 OFFCURVE",
"449 913 CURVE SMOOTH",
"550 913 OFFCURVE",
"642 949 OFFCURVE",
"725 1020 CURVE",
"717 944 OFFCURVE",
"713 865 OFFCURVE",
"713 783 CURVE SMOOTH",
"713 443 LINE SMOOTH",
"713 283 OFFCURVE",
"689 154 OFFCURVE",
"640 57 CURVE SMOOTH",
"543 -138 OFFCURVE",
"339 -255 OFFCURVE",
"10 -316 CURVE",
"48 -480 LINE"
);
}
);
width = 1175;
}
);
note = g14;
},
{
glyphname = g15;
lastChange = "2016-11-10 13:53:54 +0000";
layers = (
{
layerId = "AAFE8314-6E29-451C-A924-787600E12593";
paths = (
{
closed = 1;
nodes = (
"1110 -127 LINE",
"1170 -6 OFFCURVE",
"1204 112 OFFCURVE",
"1204 189 CURVE SMOOTH",
"1204 252 OFFCURVE",
"1172 291 OFFCURVE",
"1108 291 CURVE SMOOTH",
"1091 291 OFFCURVE",
"1054 277 OFFCURVE",
"998 250 CURVE SMOOTH",
"962 233 LINE SMOOTH",
"792 159 OFFCURVE",
"661 122 OFFCURVE",
"569 122 CURVE SMOOTH",
"398 122 OFFCURVE",
"340 203 OFFCURVE",
"340 476 CURVE SMOOTH",
"340 752 OFFCURVE",
"423 1081 OFFCURVE",
"584 1422 CURVE",
"419 1480 LINE",
"246 1109 OFFCURVE",
"160 771 OFFCURVE",
"160 466 CURVE SMOOTH",
"160 125 OFFCURVE",
"285 -43 OFFCURVE",
"549 -43 CURVE SMOOTH",
"670 -43 OFFCURVE",
"879 9 OFFCURVE",
"1018 82 CURVE",
"1011 29 OFFCURVE",
"984 -41 OFFCURVE",
"936 -128 CURVE"
);
}
);
width = 1223;
}
);
note = g15;
},
{
glyphname = g16;
lastChange = "2016-11-10 13:53:54 +0000";
layers = (
{
layerId = "AAFE8314-6E29-451C-A924-787600E12593";
paths = (
{
closed = 1;
nodes = (
"1125 217 OFFCURVE",
"1294 647 OFFCURVE",
"1294 910 CURVE SMOOTH",
"1294 1022 OFFCURVE",
"1278 1102 OFFCURVE",
"1245 1151 CURVE",
"1139 1133 OFFCURVE",
"1014 1124 OFFCURVE",
"869 1124 CURVE SMOOTH",
"784 1124 OFFCURVE",
"705 1137 OFFCURVE",
"630 1162 CURVE",
"708 1306 OFFCURVE",
"772 1449 OFFCURVE",
"821 1590 CURVE",
"651 1656 LINE",
"610 1519 OFFCURVE",
"550 1380 OFFCURVE",
"473 1239 CURVE",
"397 1291 OFFCURVE",
"341 1356 OFFCURVE",
"304 1435 CURVE",
"159 1336 LINE",
"216 1239 OFFCURVE",
"292 1158 OFFCURVE",
"387 1095 CURVE",
"280 927 OFFCURVE",
"164 788 OFFCURVE",
"40 679 CURVE",
"167 564 LINE",
"302 681 OFFCURVE",
"428 831 OFFCURVE",
"544 1015 CURVE",
"643 978 OFFCURVE",
"751 959 OFFCURVE",
"867 959 CURVE SMOOTH",
"938 959 OFFCURVE",
"1018 963 OFFCURVE",
"1106 971 CURVE",
"1111 948 OFFCURVE",
"1114 918 OFFCURVE",
"1114 881 CURVE SMOOTH",
"1114 673 OFFCURVE",
"945 260 OFFCURVE",
"684 -163 CURVE",
"821 -260 LINE"
);
}
);
width = 1454;
}
);
note = g16;
},
{
glyphname = g17;
lastChange = "2016-11-10 13:53:54 +0000";
layers = (
{
layerId = "AAFE8314-6E29-451C-A924-787600E12593";
paths = (
{
closed = 1;
nodes = (
"595 67 OFFCURVE",
"733 440 OFFCURVE",
"733 735 CURVE SMOOTH",
"733 863 OFFCURVE",
"694 923 OFFCURVE",
"630 923 CURVE SMOOTH",
"610 923 OFFCURVE",
"570 920 OFFCURVE",
"509 913 CURVE SMOOTH",
"448 906 OFFCURVE",
"403 903 OFFCURVE",
"376 903 CURVE SMOOTH",
"332 903 OFFCURVE",
"310 933 OFFCURVE",
"310 994 CURVE SMOOTH",
"310 1091 OFFCURVE",
"365 1234 OFFCURVE",
"472 1390 CURVE",
"330 1488 LINE",
"218 1349 OFFCURVE",
"130 1149 OFFCURVE",
"130 994 CURVE SMOOTH",
"130 830 OFFCURVE",
"195 738 OFFCURVE",
"319 738 CURVE SMOOTH",
"342 738 OFFCURVE",
"376 741 OFFCURVE",
"419 748 CURVE SMOOTH",
"462 755 OFFCURVE",
"493 758 OFFCURVE",
"512 758 CURVE SMOOTH",
"525 758 OFFCURVE",
"536 750 OFFCURVE",
"543 733 CURVE SMOOTH",
"550 716 OFFCURVE",
"553 681 OFFCURVE",
"553 628 CURVE SMOOTH",
"553 457 OFFCURVE",
"402 70 OFFCURVE",
"223 -174 CURVE",
"368 -260 LINE"
);
}
);
width = 893;
}
);
note = g17;
},
{
glyphname = g18;
lastChange = "2016-11-10 13:53:54 +0000";
layers = (
{
layerId = "AAFE8314-6E29-451C-A924-787600E12593";
paths = (
{
closed = 1;
nodes = (
"670 -164 OFFCURVE",
"946 -32 OFFCURVE",
"1115 145 CURVE SMOOTH",
"1284 322 OFFCURVE",
"1362 547 OFFCURVE",
"1362 956 CURVE",
"1358 1144 LINE",
"1210 1207 LINE",
"1127 1115 OFFCURVE",
"957 1023 OFFCURVE",
"749 948 CURVE",
"825 1091 OFFCURVE",
"862 1226 OFFCURVE",
"893 1367 CURVE",
"751 1488 LINE",
"626 1397 OFFCURVE",
"339 1268 OFFCURVE",
"80 1180 CURVE",
"133 1028 LINE",
"341 1091 OFFCURVE",
"528 1170 OFFCURVE",
"694 1265 CURVE",
"649 1114 OFFCURVE",
"592 988 OFFCURVE",
"524 887 CURVE",
"585 742 LINE",
"724 746 OFFCURVE",
"1027 858 OFFCURVE",
"1182 970 CURVE",
"1181 803 OFFCURVE",
"1170 676 OFFCURVE",
"1150 590 CURVE SMOOTH",
"1110 418 OFFCURVE",
"1026 287 OFFCURVE",
"879 179 CURVE SMOOTH",
"731 71 OFFCURVE",
"514 -20 OFFCURVE",
"199 -99 CURVE",
"258 -260 LINE"
);
}
);
width = 1522;
}
);
note = g18;
},
{
glyphname = g19;
lastChange = "2016-11-10 13:53:54 +0000";
layers = (
{
layerId = "AAFE8314-6E29-451C-A924-787600E12593";
paths = (
{
closed = 1;
nodes = (
"730 775 OFFCURVE",
"901 1015 OFFCURVE",
"942 1460 CURVE",
"770 1479 LINE",
"745 1155 OFFCURVE",
"620 940 OFFCURVE",
"452 940 CURVE SMOOTH",
"337 940 OFFCURVE",
"280 1007 OFFCURVE",
"280 1171 CURVE SMOOTH",
"280 1244 OFFCURVE",
"299 1327 OFFCURVE",
"336 1421 CURVE",
"175 1497 LINE",
"125 1376 OFFCURVE",
"100 1269 OFFCURVE",
"100 1176 CURVE SMOOTH",
"100 932 OFFCURVE",
"234 775 OFFCURVE",
"447 775 CURVE SMOOTH"
);
}
);
width = 1042;
}
);
note = g19;
},
{
glyphname = g20;
lastChange = "2016-11-10 13:53:54 +0000";
layers = (
{
layerId = "AAFE8314-6E29-451C-A924-787600E12593";
paths = (
{
closed = 1;
nodes = (
"429 64 OFFCURVE",
"564 184 OFFCURVE",
"672 310 CURVE SMOOTH",
"888 562 OFFCURVE",
"994 844 OFFCURVE",
"994 1216 CURVE",
"905 1321 OFFCURVE",
"692 1437 OFFCURVE",
"480 1492 CURVE",
"287 1317 OFFCURVE",
"191 1240 OFFCURVE",
"100 1180 CURVE",
"195 1060 LINE",
"298 1121 OFFCURVE",
"401 1201 OFFCURVE",
"504 1300 CURVE",
"619 1257 OFFCURVE",
"745 1192 OFFCURVE",
"814 1135 CURVE",
"798 716 OFFCURVE",
"586 379 OFFCURVE",
"162 86 CURVE",
"266 -50 LINE"
);
}
);
width = 1154;
}
);
note = g20;
},
{
glyphname = g21;
lastChange = "2016-11-10 13:53:54 +0000";
layers = (
{
layerId = "AAFE8314-6E29-451C-A924-787600E12593";
paths = (
{
closed = 1;
nodes = (
"479 -1 OFFCURVE",
"534 370 OFFCURVE",
"534 705 CURVE SMOOTH",
"534 820 OFFCURVE",
"530 908 OFFCURVE",
"523 969 CURVE",
"579 941 OFFCURVE",
"648 927 OFFCURVE",
"730 927 CURVE SMOOTH",
"947 927 OFFCURVE",
"1099 1077 OFFCURVE",
"1134 1316 CURVE",
"963 1371 LINE",
"928 1186 OFFCURVE",
"849 1092 OFFCURVE",
"714 1092 CURVE SMOOTH",
"618 1092 OFFCURVE",
"545 1139 OFFCURVE",
"475 1243 CURVE SMOOTH",
"440 1295 OFFCURVE",
"398 1377 OFFCURVE",
"349 1488 CURVE",
"200 1402 LINE",
"301 1207 OFFCURVE",
"354 966 OFFCURVE",
"354 718 CURVE SMOOTH",
"354 378 OFFCURVE",
"305 24 OFFCURVE",
"229 -211 CURVE",
"398 -260 LINE"
);
}
);
width = 1234;
}
);
note = g21;
},
{
glyphname = g22;
lastChange = "2016-11-10 13:53:54 +0000";
layers = (
{
layerId = "AAFE8314-6E29-451C-A924-787600E12593";
paths = (
{
closed = 1;
nodes = (
"471 -30 OFFCURVE",
"514 206 OFFCURVE",
"528 449 CURVE",
"641 512 OFFCURVE",
"745 588 OFFCURVE",
"838 677 CURVE SMOOTH",
"1024 854 OFFCURVE",
"1133 1057 OFFCURVE",
"1133 1221 CURVE SMOOTH",
"1133 1284 OFFCURVE",
"1123 1334 OFFCURVE",
"1102 1372 CURVE SMOOTH",
"1061 1448 OFFCURVE",
"995 1483 OFFCURVE",
"868 1483 CURVE SMOOTH",
"755 1483 OFFCURVE",
"579 1420 OFFCURVE",
"428 1324 CURVE",
"407 1384 OFFCURVE",
"383 1439 OFFCURVE",
"356 1488 CURVE",
"200 1402 LINE",
"288 1237 OFFCURVE",
"354 894 OFFCURVE",
"354 617 CURVE SMOOTH",
"354 337 OFFCURVE",
"328 162 OFFCURVE",
"229 -211 CURVE",
"398 -260 LINE"
);
},
{
closed = 1;
nodes = (
"534 666 LINE SMOOTH",
"534 836 OFFCURVE",
"514 1003 OFFCURVE",
"474 1167 CURVE",
"609 1256 OFFCURVE",
"761 1318 OFFCURVE",
"832 1318 CURVE SMOOTH",
"925 1318 OFFCURVE",
"953 1287 OFFCURVE",
"953 1218 CURVE SMOOTH",
"953 1165 OFFCURVE",
"935 1102 OFFCURVE",
"899 1031 CURVE SMOOTH",
"826 888 OFFCURVE",
"690 742 OFFCURVE",
"534 646 CURVE"
);
}
);
width = 1293;
}
);
note = g22;
},
{
glyphname = g23;
lastChange = "2016-11-10 13:53:54 +0000";
layers = (
{
layerId = "AAFE8314-6E29-451C-A924-787600E12593";
paths = (
{
closed = 1;
nodes = (
"832 -434 OFFCURVE",
"921 -273 OFFCURVE",
"981 -84 CURVE SMOOTH",
"1041 104 OFFCURVE",
"1076 313 OFFCURVE",
"1092 746 CURVE SMOOTH",
"1104 1073 OFFCURVE",
"1145 1305 OFFCURVE",
"1214 1442 CURVE",
"1040 1484 LINE",
"1017 1428 LINE",
"976 1363 OFFCURVE",
"930 1310 OFFCURVE",
"877 1269 CURVE SMOOTH",
"772 1186 OFFCURVE",
"648 1141 OFFCURVE",
"529 1141 CURVE SMOOTH",
"474 1141 OFFCURVE",
"431 1152 OFFCURVE",
"398 1174 CURVE SMOOTH",
"333 1217 OFFCURVE",
"289 1310 OFFCURVE",
"270 1462 CURVE",
"100 1410 LINE",
"129 1121 OFFCURVE",
"266 976 OFFCURVE",
"513 976 CURVE SMOOTH",
"665 976 OFFCURVE",
"827 1034 OFFCURVE",
"947 1129 CURVE",
"926 991 OFFCURVE",
"910 798 OFFCURVE",
"898 550 CURVE SMOOTH",
"873 51 OFFCURVE",
"782 -199 OFFCURVE",
"567 -468 CURVE",
"707 -566 LINE"
);
}
);
width = 1374;
}
);
note = g23;
},
{
glyphname = g24;
lastChange = "2016-11-10 13:53:54 +0000";
layers = (
{
layerId = "AAFE8314-6E29-451C-A924-787600E12593";
paths = (
{
closed = 1;
nodes = (
"999 -24 OFFCURVE",
"1091 13 OFFCURVE",
"1186 88 CURVE SMOOTH",
"1376 237 OFFCURVE",
"1604 547 OFFCURVE",
"1796 908 CURVE",
"1629 969 LINE",
"1476 686 OFFCURVE",
"1283 414 OFFCURVE",
"1122 258 CURVE SMOOTH",
"1041 180 OFFCURVE",
"981 141 OFFCURVE",
"941 141 CURVE SMOOTH",
"862 141 OFFCURVE",
"765 269 OFFCURVE",
"648 524 CURVE",
"815 739 OFFCURVE",
"940 968 OFFCURVE",
"1021 1213 CURVE",
"858 1278 LINE",
"783 1079 OFFCURVE",
"687 890 OFFCURVE",
"570 713 CURVE",
"475 961 OFFCURVE",
"372 1298 OFFCURVE",
"340 1482 CURVE",
"160 1431 LINE",
"179 1307 OFFCURVE",
"223 1144 OFFCURVE",
"290 942 CURVE SMOOTH",
"424 538 OFFCURVE",
"578 234 OFFCURVE",
"716 87 CURVE SMOOTH",
"785 13 OFFCURVE",
"849 -24 OFFCURVE",
"910 -24 CURVE SMOOTH"
);
}
);
width = 1876;
}
);
note = g24;
},
{
glyphname = g25;
lastChange = "2016-11-10 13:53:54 +0000";
layers = (
{
layerId = "AAFE8314-6E29-451C-A924-787600E12593";
paths = (
{
closed = 1;
nodes = (
"297 153 OFFCURVE",
"406 579 OFFCURVE",
"406 980 CURVE",
"404 1080 LINE",
"515 1150 OFFCURVE",
"616 1208 OFFCURVE",
"707 1255 CURVE SMOOTH",
"798 1301 OFFCURVE",
"858 1324 OFFCURVE",
"887 1324 CURVE SMOOTH",
"919 1324 OFFCURVE",
"963 1256 OFFCURVE",
"963 1223 CURVE SMOOTH",
"963 1055 OFFCURVE",
"826 650 OFFCURVE",
"661 302 CURVE",
"830 240 LINE",
"993 569 OFFCURVE",
"1143 1027 OFFCURVE",
"1143 1232 CURVE SMOOTH",
"1143 1264 OFFCURVE",
"1131 1303 OFFCURVE",
"1107 1349 CURVE SMOOTH",
"1059 1440 OFFCURVE",
"996 1493 OFFCURVE",
"940 1493 CURVE SMOOTH",
"827 1493 OFFCURVE",
"642 1415 OFFCURVE",
"387 1260 CURVE",
"374 1349 OFFCURVE",
"357 1424 OFFCURVE",
"336 1486 CURVE",
"173 1427 LINE",
"204 1336 OFFCURVE",
"226 1164 OFFCURVE",
"226 975 CURVE SMOOTH",
"226 620 OFFCURVE",
"148 278 OFFCURVE",
"-60 -185 CURVE",
"94 -260 LINE"
);
}
);
width = 1303;
}
);
note = g25;
},
{
glyphname = g26;
lastChange = "2016-11-10 13:53:54 +0000";
layers = (
{
layerId = "AAFE8314-6E29-451C-A924-787600E12593";
paths = (
{
closed = 1;
nodes = (
"698 77 OFFCURVE",
"730 327 OFFCURVE",
"730 506 CURVE SMOOTH",
"730 595 OFFCURVE",
"722 685 OFFCURVE",
"706 774 CURVE",
"911 777 OFFCURVE",
"1104 808 OFFCURVE",
"1286 868 CURVE",
"1223 1024 LINE",
"1067 980 OFFCURVE",
"903 953 OFFCURVE",
"731 942 CURVE",
"787 1083 OFFCURVE",
"911 1244 OFFCURVE",
"1043 1347 CURVE",
"939 1482 LINE",
"808 1375 OFFCURVE",
"702 1240 OFFCURVE",
"621 1077 CURVE",
"578 1215 OFFCURVE",
"524 1353 OFFCURVE",
"461 1490 CURVE",
"296 1432 LINE",
"379 1257 OFFCURVE",
"441 1094 OFFCURVE",
"484 941 CURVE",
"361 948 OFFCURVE",
"247 961 OFFCURVE",
"140 981 CURVE",
"120 817 LINE",
"239 796 OFFCURVE",
"373 783 OFFCURVE",
"524 776 CURVE",
"541 688 OFFCURVE",
"550 601 OFFCURVE",
"550 516 CURVE SMOOTH",
"550 299 OFFCURVE",
"526 99 OFFCURVE",
"489 2 CURVE",
"655 -50 LINE"
);
}
);
width = 1406;
}
);
note = g26;
},
{
glyphname = g27;
lastChange = "2016-11-10 13:53:54 +0000";
layers = (
{
layerId = "AAFE8314-6E29-451C-A924-787600E12593";
paths = (
{
closed = 1;
nodes = (
"591 92 LINE SMOOTH",
"591 491 OFFCURVE",
"502 1059 OFFCURVE",
"377 1483 CURVE",
"200 1450 LINE",
"243 1303 OFFCURVE",
"282 1139 OFFCURVE",
"315 959 CURVE SMOOTH",
"381 598 OFFCURVE",
"411 284 OFFCURVE",
"411 80 CURVE SMOOTH",
"411 40 LINE",
"410 0 LINE",
"588 -20 LINE"
);
}
);
width = 791;
}
);
note = g27;
},
{
glyphname = g28;
lastChange = "2016-11-10 13:53:54 +0000";
layers = (
{
layerId = "AAFE8314-6E29-451C-A924-787600E12593";
paths = (
{
closed = 1;
nodes = (
"591 92 LINE SMOOTH",
"591 491 OFFCURVE",
"502 1059 OFFCURVE",
"377 1483 CURVE",
"200 1450 LINE",
"243 1303 OFFCURVE",
"282 1139 OFFCURVE",
"315 959 CURVE SMOOTH",
"381 598 OFFCURVE",
"411 284 OFFCURVE",
"411 80 CURVE SMOOTH",
"411 40 LINE",
"410 0 LINE",
"588 -20 LINE"
);
},
{
closed = 1;
nodes = (
"959 360 OFFCURVE",
"1027 880 OFFCURVE",
"1027 1371 CURVE SMOOTH",
"1027 1483 LINE",
"846 1450 LINE",
"846 1406 LINE SMOOTH",
"846 946 OFFCURVE",
"777 377 OFFCURVE",
"674 25 CURVE",
"840 -20 LINE"
);
}
);
width = 1227;
}
);
note = g28;
},
{
glyphname = g29;
lastChange = "2016-11-10 13:53:54 +0000";
layers = (
{
layerId = "AAFE8314-6E29-451C-A924-787600E12593";
paths = (
{
closed = 1;
nodes = (
"1306 375 OFFCURVE",
"1477 991 OFFCURVE",
"1541 1483 CURVE",
"1349 1450 LINE",
"1281 978 OFFCURVE",
"1111 376 OFFCURVE",
"950 25 CURVE",
"1118 -20 LINE"
);
},
{
closed = 1;
nodes = (
"591 92 LINE SMOOTH",
"591 491 OFFCURVE",
"502 1059 OFFCURVE",
"377 1483 CURVE",
"200 1450 LINE",
"243 1303 OFFCURVE",
"282 1139 OFFCURVE",
"315 959 CURVE SMOOTH",
"381 598 OFFCURVE",
"411 284 OFFCURVE",
"411 80 CURVE SMOOTH",
"411 40 LINE",
"410 0 LINE",
"588 -20 LINE"
);
},
{
closed = 1;
nodes = (
"959 360 OFFCURVE",
"1027 880 OFFCURVE",
"1027 1371 CURVE SMOOTH",
"1027 1483 LINE",
"846 1450 LINE",
"846 1406 LINE SMOOTH",
"846 946 OFFCURVE",
"777 377 OFFCURVE",
"674 25 CURVE",
"840 -20 LINE"
);
}
);
width = 1741;
}
);
note = g29;
},
{
glyphname = g30;
lastChange = "2016-11-10 13:53:54 +0000";
layers = (
{
layerId = "AAFE8314-6E29-451C-A924-787600E12593";
paths = (
{
closed = 1;
nodes = (
"1355 486 OFFCURVE",
"1408 693 OFFCURVE",
"1408 880 CURVE SMOOTH",
"1408 897 OFFCURVE",
"1402 909 OFFCURVE",
"1391 917 CURVE",
"1380 924 OFFCURVE",
"1350 934 OFFCURVE",
"1303 946 CURVE SMOOTH",
"1256 957 OFFCURVE",
"1198 968 OFFCURVE",
"1129 979 CURVE SMOOTH",
"991 1000 OFFCURVE",
"852 1011 OFFCURVE",
"736 1011 CURVE SMOOTH",
"517 1011 OFFCURVE",
"322 997 OFFCURVE",
"150 968 CURVE",
"170 804 LINE",
"323 832 OFFCURVE",
"496 846 OFFCURVE",
"687 846 CURVE SMOOTH",
"856 846 OFFCURVE",
"1077 821 OFFCURVE",
"1225 790 CURVE",
"1214 660 OFFCURVE",
"1170 509 OFFCURVE",
"1094 338 CURVE",
"1250 259 LINE"
);
}
);
width = 1558;
}
);
note = g30;
},
{
glyphname = g31;
lastChange = "2016-11-10 13:53:54 +0000";
layers = (
{
layerId = "AAFE8314-6E29-451C-A924-787600E12593";
paths = (
{
closed = 1;
nodes = (
"1483 276 OFFCURVE",
"1524 457 OFFCURVE",
"1524 620 CURVE SMOOTH",
"1524 643 OFFCURVE",
"1511 659 OFFCURVE",
"1484 668 CURVE SMOOTH",
"1393 697 OFFCURVE",
"1265 720 OFFCURVE",
"1099 738 CURVE",
"1142 872 OFFCURVE",
"1163 999 OFFCURVE",
"1163 1120 CURVE SMOOTH",
"1163 1144 OFFCURVE",
"1152 1160 OFFCURVE",
"1130 1167 CURVE SMOOTH",
"981 1216 OFFCURVE",
"711 1251 OFFCURVE",
"491 1251 CURVE SMOOTH",
"372 1251 OFFCURVE",
"258 1246 OFFCURVE",
"150 1237 CURVE",
"167 1075 LINE",
"265 1082 OFFCURVE",
"357 1086 OFFCURVE",
"442 1086 CURVE SMOOTH",
"611 1086 OFFCURVE",
"832 1061 OFFCURVE",
"980 1030 CURVE",
"974 950 OFFCURVE",
"953 857 OFFCURVE",
"916 750 CURVE",
"852 751 LINE SMOOTH",
"733 751 OFFCURVE",
"619 746 OFFCURVE",
"511 737 CURVE",
"528 575 LINE",
"626 582 OFFCURVE",
"718 586 OFFCURVE",
"803 586 CURVE SMOOTH",
"972 586 OFFCURVE",
"1193 561 OFFCURVE",
"1341 530 CURVE",
"1331 415 OFFCURVE",
"1296 286 OFFCURVE",
"1237 142 CURVE",
"1401 78 LINE"
);
}
);
width = 1674;
}
);
note = g31;
},
{
glyphname = g32;
lastChange = "2016-11-10 13:53:54 +0000";
layers = (
{
layerId = "AAFE8314-6E29-451C-A924-787600E12593";
paths = (
{
closed = 1;
nodes = (
"1423 504 OFFCURVE",
"1468 700 OFFCURVE",
"1468 880 CURVE SMOOTH",
"1468 895 OFFCURVE",
"1463 907 OFFCURVE",
"1453 916 CURVE",
"1442 925 OFFCURVE",
"1402 937 OFFCURVE",
"1333 953 CURVE SMOOTH",
"1194 984 OFFCURVE",
"972 1011 OFFCURVE",
"796 1011 CURVE SMOOTH",
"647 1011 OFFCURVE",
"521 1005 OFFCURVE",
"417 993 CURVE",
"433 1068 OFFCURVE",
"468 1186 OFFCURVE",
"512 1283 CURVE",
"348 1347 LINE",
"291 1196 OFFCURVE",
"232 974 OFFCURVE",
"216 803 CURVE",
"365 831 OFFCURVE",
"563 846 OFFCURVE",
"747 846 CURVE SMOOTH",
"911 846 OFFCURVE",
"1120 825 OFFCURVE",
"1285 790 CURVE",
"1274 661 OFFCURVE",
"1231 511 OFFCURVE",
"1154 338 CURVE",
"1310 259 LINE"
);
},
{
closed = 1;
nodes = (
"856 473 OFFCURVE",
"928 524 OFFCURVE",
"928 587 CURVE SMOOTH",
"928 650 OFFCURVE",
"857 702 OFFCURVE",
"769 702 CURVE SMOOTH",
"681 702 OFFCURVE",
"610 650 OFFCURVE",
"610 587 CURVE SMOOTH",
"610 524 OFFCURVE",
"682 473 OFFCURVE",
"769 473 CURVE SMOOTH"
);
}
);
width = 1618;
}
);
note = g32;
},
{
glyphname = g33;
lastChange = "2016-11-10 13:53:54 +0000";
layers = (
{
layerId = "AAFE8314-6E29-451C-A924-787600E12593";
paths = (
{
closed = 1;
nodes = (
"423 50 OFFCURVE",
"636 247 OFFCURVE",
"733 432 CURVE",
"796 358 OFFCURVE",
"889 321 OFFCURVE",
"1012 321 CURVE SMOOTH",
"1111 321 OFFCURVE",
"1238 351 OFFCURVE",
"1393 410 CURVE",
"1337 563 LINE",
"1199 512 OFFCURVE",
"1097 486 OFFCURVE",
"1032 486 CURVE SMOOTH",
"861 486 OFFCURVE",
"803 567 OFFCURVE",
"803 840 CURVE SMOOTH",
"803 1116 OFFCURVE",
"886 1445 OFFCURVE",
"1047 1786 CURVE",
"882 1844 LINE",
"763 1589 OFFCURVE",
"686 1349 OFFCURVE",
"652 1122 CURVE",
"590 1171 OFFCURVE",
"509 1196 OFFCURVE",
"409 1196 CURVE SMOOTH",
"346 1196 OFFCURVE",
"275 1185 OFFCURVE",
"194 1162 CURVE",
"247 1007 LINE",
"306 1023 OFFCURVE",
"353 1031 OFFCURVE",
"389 1031 CURVE SMOOTH",
"564 1031 OFFCURVE",
"628 942 OFFCURVE",
"628 677 CURVE SMOOTH",
"628 496 OFFCURVE",
"455 288 OFFCURVE",
"150 104 CURVE",
"232 -50 LINE"
);
}
);
width = 1543;
}
);
note = g33;
},
{
glyphname = g34;
lastChange = "2016-11-10 13:53:54 +0000";
layers = (
{
layerId = "AAFE8314-6E29-451C-A924-787600E12593";
paths = (
{
closed = 1;
nodes = (
"1402 164 OFFCURVE",
"1447 360 OFFCURVE",
"1447 540 CURVE SMOOTH",
"1447 561 OFFCURVE",
"1439 578 OFFCURVE",
"1399 590 CURVE SMOOTH",
"1369 598 LINE",
"1435 771 OFFCURVE",
"1468 931 OFFCURVE",
"1468 1079 CURVE SMOOTH",
"1468 1094 OFFCURVE",
"1463 1106 OFFCURVE",
"1453 1115 CURVE",
"1442 1124 OFFCURVE",
"1402 1136 OFFCURVE",
"1333 1152 CURVE SMOOTH",
"1194 1183 OFFCURVE",
"972 1210 OFFCURVE",
"796 1210 CURVE SMOOTH",
"641 1210 OFFCURVE",
"515 1204 OFFCURVE",
"417 1193 CURVE",
"433 1268 OFFCURVE",
"468 1386 OFFCURVE",
"512 1483 CURVE",
"348 1547 LINE",
"291 1396 OFFCURVE",
"232 1174 OFFCURVE",
"216 1003 CURVE",
"364 1030 OFFCURVE",
"560 1045 OFFCURVE",
"747 1045 CURVE SMOOTH",
"911 1045 OFFCURVE",
"1120 1024 OFFCURVE",
"1285 989 CURVE",
"1276 886 OFFCURVE",
"1246 768 OFFCURVE",
"1194 635 CURVE",
"1057 658 OFFCURVE",
"900 671 OFFCURVE",
"775 671 CURVE SMOOTH",
"592 671 OFFCURVE",
"422 660 OFFCURVE",
"264 639 CURVE",
"284 476 LINE",
"420 496 OFFCURVE",
"567 506 OFFCURVE",
"726 506 CURVE SMOOTH",
"890 506 OFFCURVE",
"1099 485 OFFCURVE",
"1264 450 CURVE",
"1253 321 OFFCURVE",
"1210 171 OFFCURVE",
"1133 -2 CURVE",
"1289 -81 LINE"
);
},
{
closed = 1;
nodes = (
"970 940 LINE",
"888 948 OFFCURVE",
"811 952 OFFCURVE",
"739 952 CURVE SMOOTH",
"684 952 OFFCURVE",
"629 951 OFFCURVE",
"575 949 CURVE",
"582 785 LINE",
"630 786 OFFCURVE",
"666 787 OFFCURVE",
"690 787 CURVE SMOOTH",
"775 787 OFFCURVE",
"861 783 OFFCURVE",
"947 774 CURVE"
);
}
